<?xml version="1.0" ?><!DOCTYPE svg  PUBLIC '-//W3C//DTD SVG 1.0//EN'  'http://www.w3.org/TR/2001/REC-SVG-20010904/DTD/svg10.dtd'><svg height="110px" style="enable-background:new 0 0 110 110;" version="1.0" viewBox="0 0 110 110" width="110px" xml:space="preserve" xmlns="http://www.w3.org/2000/svg" xmlns:xlink="http://www.w3.org/1999/xlink"><g id="Artboard"/><g id="Multicolor"><circle cx="55" cy="55" r="55" style="fill:#FABC3D;"/><g><path d="M55,63c17.679,0,30,5.797,30,11S72.679,85,55,85s-30-5.797-30-11S37.321,63,55,63 M55,61    c-17.673,0-32,5.82-32,13s14.327,13,32,13s32-5.82,32-13S72.673,61,55,61L55,61z" style="fill:#FFFFFF;"/><path d="M55,69c12.389,0,18,3.452,18,4.5S67.389,78,55,78s-18-3.452-18-4.5S42.611,69,55,69 M55,67    c-11.046,0-20,2.91-20,6.5S43.954,80,55,80s20-2.91,20-6.5S66.046,67,55,67L55,67z" style="fill:#FFFFFF;"/><path d="M61.463,35.708c0.966-1.322,1.542-2.946,1.542-4.708c0-4.418-3.582-8-8-8s-8,3.582-8,8    c0,1.762,0.577,3.386,1.542,4.708c-1.543,0.306-8.329,2.157-7.464,6.479l1.278,13.597C42.737,57.654,44.378,59,46.285,59h0.97    l0.771,12.398C48.23,73.443,49.95,75,52.006,75h6c2.055,0,3.776-1.557,3.98-3.602L62.757,59h0.97c1.907,0,3.548-1.346,3.922-3.215    l1.279-13.597C69.683,38.408,64.35,36.281,61.463,35.708z" style="fill:#DF2C2C;"/><path d="M55,23c-4.416,0.003-7.994,3.583-7.994,8c0,1.762,0.577,3.386,1.542,4.708    c-1.543,0.306-8.329,2.157-7.464,6.479l1.278,13.597C42.737,57.654,44.378,59,46.285,59h0.97l0.771,12.398    C48.23,73.443,49.95,75,52.006,75H55V23z" style="fill:#FA5655;"/></g></g></svg>